<svg xmlns="http://www.w3.org/2000/svg" viewBox="0 0 158.3 176.11"><defs><style>.cls-1{fill:#5dd2c7;}</style></defs><g id="Layer_2" data-name="Layer 2"><g id="Слой_1" data-name="Слой 1"><path class="cls-1" d="M157.63,58.15C152.15,47.44,112.46,54.77,78.52,69c-3.38,1.42-6.71,2.91-9.93,4.46,2.58,7.72,3.35,14.65-.13,18.15-1.29,1.3-3.39,2.35-7,2.41,1.62-3.73,1.36-10,.18-17.07-1.47.77-2.94,1.57-4.41,2.38C26.47,96.4-4.37,122.4.51,133.35c5.55,12.41,57.2,5.73,97.06-15.25C130.39,100.82,163.45,69.52,157.63,58.15ZM82.8,114.21C52.54,128,15.74,134.13,12.46,126.71c-3.94-8.93,40-39.23,41.31-40.13l-.25.22c-.87.8-24.61,22.61-21.39,28.91,2.62,5.12,23.7,1.33,45.94-7h0a34,34,0,0,0,6.37-2.5h0c4-1.65,8.07-3.44,12-5.34A193.75,193.75,0,0,0,146,66.21C133.54,80.66,113.05,100.48,82.8,114.21Z"/><path class="cls-1" d="M78.52,69C56.73,45.73,33.37,1.85,32.39,0c.8,1.87,20.4,47.75,24.84,79.35,1.82,12.9,1.12,23.42-4.42,27.6,1.39.61,12.6,5.32,25.26,1.78h0a34,34,0,0,0,6.37-2.5h0c.55-.28,1.11-.59,1.66-.91C98.67,98,102.22,85.52,102.88,83,96.13,84.68,87.45,78.58,78.52,69ZM68.46,91.63c-1.29,1.3-3.39,2.35-7,2.41,1.62-3.73,1.36-10,.18-17.07C58.88,60.49,51.1,40,50.81,39.23,52.52,41.82,63.74,59,68.59,73.48,71.17,81.2,71.94,88.13,68.46,91.63Z"/><path class="cls-1" d="M116.91,176.11A505.28,505.28,0,0,0,89,130.19q4.94-2.15,9.71-4.55A507.63,507.63,0,0,0,116.91,176.11Z"/></g></g></svg>